<?xml version="1.0" encoding="UTF-8"?>
<svg version="1.1" xmlns="http://www.w3.org/2000/svg" width="1563" height="1355">
<path d="M0 0 C334.29 0 668.58 0 1013 0 C1013 147.56188716 1013 147.56188716 995.25 177.625 C994.05542873 179.66112939 992.861439 181.69760005 991.66796875 183.734375 C990.76377197 185.27641602 990.76377197 185.27641602 989.84130859 186.84960938 C986.72654922 192.17881317 983.64418136 197.52662075 980.5625 202.875 C979.94020508 203.95475098 979.31791016 205.03450195 978.67675781 206.14697266 C977.41471274 208.33714534 976.15283148 210.52741243 974.89111328 212.71777344 C971.76319852 218.14659942 968.63141552 223.57319281 965.5 229 C964.24998121 231.16665583 962.99998122 233.3333225 961.75 235.5 C954.25 248.5 946.75 261.5 939.25 274.5 C938.63116943 275.57266113 938.01233887 276.64532227 937.37475586 277.75048828 C936.12564482 279.91557071 934.87645871 282.08060982 933.62719727 284.24560547 C930.48797691 289.68615706 927.35009437 295.12747216 924.21484375 300.5703125 C917.56853696 312.10527474 910.90218323 323.6278681 904.18139648 335.11962891 C903.12540524 336.92591676 902.08240035 338.73985405 901.05195618 340.56083679 C899.60017468 343.06764715 898.01586896 345.43232265 896.35223389 347.80314636 C887.17476385 361.41454475 885.83850771 374.14230411 884.84375 390.2421875 C884.64662021 392.86198048 884.4452341 395.48145623 884.23986816 398.10061646 C883.76320993 404.26907077 883.33425917 410.43982856 882.92359018 416.61298954 C882.46317111 423.50182077 881.95148704 430.38650029 881.43419075 437.27125883 C880.59477207 448.45321649 879.78705655 459.63718954 879.00390625 470.82324219 C878.20779729 482.17313624 877.37944615 493.51974909 876.4724884 504.86136246 C876.34654448 506.43959322 876.22214576 508.01794816 876.09941101 509.59643173 C875.935763 511.6963292 875.7667406 513.79571287 875.59570312 515.89501953 C875.50389771 517.0392337 875.41209229 518.18344788 875.31750488 519.36233521 C875 522 875 522 874 524 C872.99137466 524.00013233 872.99137466 524.00013233 871.96237305 524.00026734 C798.77304628 524.01004672 725.58372185 524.02599488 652.39440918 524.07429504 C651.3015573 524.0750145 650.20870543 524.07573395 649.08273683 524.0764752 C625.33351735 524.09214703 601.58429877 524.10892922 577.83508089 524.12685562 C566.1888822 524.13563965 554.54268334 524.14417826 542.89648438 524.15258789 C541.15805659 524.15384946 541.15805659 524.15384946 539.38450905 524.15513652 C501.80302069 524.1822942 464.22154881 524.19323792 426.6400514 524.19579524 C388.02804924 524.19850817 349.41608879 524.21753511 310.80410602 524.25716115 C305.35348925 524.26274729 299.90287231 524.26814645 294.45225525 524.27343178 C293.37946986 524.27447781 292.30668447 524.27552385 291.20139043 524.27660158 C273.9155004 524.2929752 256.62965202 524.29209323 239.34375756 524.28479717 C221.97588601 524.27783336 204.60810126 524.28895612 187.24025303 524.3186629 C176.91500796 524.33577071 166.5899768 524.33888897 156.26472992 524.32217421 C149.37197859 524.31238091 142.47940282 524.32062319 135.58668339 524.34366048 C131.65631305 524.35627665 127.72637183 524.36092767 123.7960096 524.34362926 C119.56479801 524.32518923 115.33464593 524.34522788 111.10346222 524.36914349 C109.87950627 524.35761276 108.65555031 524.34608204 107.39450479 524.3342019 C100.31708579 524.41353418 95.43572476 525.27509455 90 530 C86.28619783 534.19300245 85.8300269 539.55236203 86 545 C86.72006934 547.61268401 87.7147263 549.5777534 89 552 C89.495 553.485 89.495 553.485 90 555 C92.29534258 556.13545562 92.29534258 556.13545562 95 557 C96.14655543 557.51636994 96.14655543 557.51636994 97.3162736 558.0431716 C100.28782519 559.10261825 102.5410416 559.24876782 105.68962234 559.24675435 C106.8339715 559.25088878 107.97832065 559.2550232 109.15734705 559.25928292 C110.41245605 559.2536323 111.66756506 559.24798169 112.96070766 559.24215984 C114.31470376 559.24322333 115.6686994 559.24516777 117.02269313 559.24791405 C120.75893782 559.25294288 124.49507076 559.24546973 128.23130317 559.23606206 C132.29031135 559.22806196 136.34931118 559.23171559 140.4083243 559.2339552 C147.52766777 559.23630313 154.64697678 559.23131026 161.76631355 559.2215786 C172.35330617 559.2071861 182.9402794 559.20433945 193.52728071 559.20420211 C210.24536901 559.20380993 226.96344581 559.19666792 243.68152975 559.18497829 C270.22433526 559.16653281 296.76711254 559.16768938 323.30992207 559.17538813 C332.37571753 559.17796399 341.4415131 559.18010737 350.50730865 559.18232347 C352.79715531 559.18288404 355.08700197 559.18344968 357.37684863 559.18402038 C384.3893345 559.1907183 411.40181998 559.19343785 438.41430664 559.19360352 C439.59647184 559.19361727 440.77863704 559.19363103 441.99662542 559.1936452 C480.32730022 559.19395894 518.65794743 559.17664053 556.98861358 559.15226696 C596.38988754 559.12734794 635.79110312 559.12579452 675.19237779 559.15151519 C680.75694498 559.15512414 686.3215123 559.15843708 691.88607979 559.16155434 C692.9812417 559.16217253 694.0764036 559.16279071 695.20475223 559.16342764 C712.83232103 559.17263312 730.45978224 559.15672205 748.0873311 559.13105552 C765.80533159 559.10570871 783.52318927 559.10536781 801.24119114 559.13068654 C811.76746936 559.14493549 822.29331612 559.13961744 832.8195535 559.10630553 C839.85377228 559.08595989 846.88767813 559.09104618 853.92187892 559.11664519 C857.928168 559.1304956 861.93362058 559.13341583 865.93985318 559.10522046 C869.59166652 559.0797335 873.24195751 559.08700903 876.8937031 559.11936342 C878.81124701 559.12819474 880.72885808 559.10300656 882.64623269 559.07603917 C891.09517206 559.1966101 896.68926502 561.2920621 903.91416797 565.35900309 C908.18978364 567.63270822 912.21258366 568.55883877 917 569 C918.10214844 569.10441406 918.10214844 569.10441406 919.2265625 569.2109375 C932.99646303 569.8434771 945.16918312 562.77489476 956.02612305 555.07421875 C962.05084047 550.87210076 968.22713048 546.8937493 974.375 542.875 C975.79706655 541.94446132 977.21910409 541.01387829 978.64111328 540.08325195 C980.76569552 538.69310836 982.89047836 537.30327574 985.01583862 535.9143219 C989.17260423 533.19767404 993.32311876 530.47188937 997.46875 527.73828125 C999.27074804 526.55455765 1001.07282401 525.37095267 1002.875 524.1875 C1003.68759277 523.64915527 1004.50018555 523.11081055 1005.33740234 522.55615234 C1006.06910645 522.07742676 1006.80081055 521.59870117 1007.5546875 521.10546875 C1008.17843262 520.69449951 1008.80217773 520.28353027 1009.44482422 519.86010742 C1011 519 1011 519 1013 519 C1013 559.59 1013 600.18 1013 642 C678.71 642 344.42 642 0 642 C0 430.14 0 218.28 0 0 Z M88 64 C85.40711828 68.82812459 84.32902257 72.53632663 85 78 C87.15871318 84.17438392 90.19980472 87.98132344 96.04224682 91.0848484 C100.33031765 92.41161052 104.42215929 92.28217995 108.8865509 92.26742554 C110.39132312 92.27422221 110.39132312 92.27422221 111.92649478 92.28115618 C115.29194488 92.2938283 118.65723374 92.29217798 122.02270508 92.29052734 C124.43407907 92.29651083 126.84545114 92.30331596 129.25682068 92.31088257 C135.12964461 92.32673057 141.00243066 92.33299176 146.8752716 92.33410732 C151.65007077 92.33505821 156.42485672 92.33917052 161.19965172 92.34550858 C174.74262437 92.36311912 188.28556535 92.37234778 201.82854954 92.37084763 C202.9233577 92.37072776 202.9233577 92.37072776 204.0402832 92.37060547 C204.77104845 92.37052371 205.50181369 92.37044195 206.25472333 92.37035771 C218.09573208 92.36954494 229.93661359 92.38868069 241.77758554 92.4168822 C253.94124502 92.44562321 266.10484246 92.45942182 278.26853675 92.45769465 C285.09534211 92.45703115 291.92201409 92.46250578 298.74878883 92.48405075 C305.16987334 92.50418578 311.59074902 92.50357636 318.01185036 92.48901749 C320.36766979 92.48692484 322.72350673 92.49165731 325.07929611 92.5037384 C328.29736173 92.51917167 331.51445356 92.5098945 334.73249817 92.49447632 C335.66295812 92.50476344 336.59341807 92.51505057 337.55207378 92.52564943 C343.53075939 92.46242567 347.98279566 91.33464921 353 88 C357.01454672 83.86612493 359 78.74317807 359 73 C357.95726891 66.80878418 355.73766258 63.05574847 350.81640625 59.19140625 C347.3890713 56.94336935 344.82326853 55.7503579 340.68269539 55.74552441 C339.82151608 55.73969221 338.96033676 55.73386002 338.07306111 55.72785109 C336.66091731 55.73352008 336.66091731 55.73352008 335.22024536 55.73930359 C333.71463808 55.73356527 333.71463808 55.73356527 332.1786145 55.72771102 C328.80538419 55.71736809 325.43232368 55.72137567 322.05908203 55.7253418 C319.64461102 55.72099603 317.23014139 55.71581333 314.81567383 55.70985413 C308.93201605 55.69783235 303.04840061 55.69531457 297.16473521 55.69765439 C292.3822678 55.69943685 287.59981424 55.69768945 282.81734848 55.69342995 C282.13688391 55.69283476 281.45641934 55.69223957 280.75533464 55.69162634 C279.37299316 55.6904146 277.99065168 55.68920047 276.60831021 55.68798397 C263.64138177 55.67710481 250.67447934 55.67927259 237.70754944 55.68536881 C225.84574829 55.6905373 213.98402928 55.67928502 202.12224437 55.66027059 C189.94280733 55.64089665 177.76340915 55.63263548 165.5839566 55.63639385 C158.74604902 55.6383067 151.90821133 55.63581026 145.07031631 55.62167931 C138.64024603 55.6085257 132.2102991 55.61101956 125.78022766 55.62409019 C123.41873495 55.62646147 121.05723074 55.62370167 118.69575119 55.61546707 C115.47488231 55.6050447 112.25457051 55.61306443 109.03372192 55.6257782 C108.09675417 55.61840391 107.15978642 55.61102963 106.1944257 55.60343188 C98.27993171 55.66926346 93.20871791 57.80584897 88 64 Z M458.625 62.5 C454.95668236 68.1435656 454.34038195 72.29742953 455 79 C456.78015739 84.4451873 460.388261 87.78226393 465 91 C468.76560164 92.25520055 472.28047964 92.14808062 476.20341492 92.14717102 C477.04971256 92.15084771 477.8960102 92.1545244 478.76795322 92.1583125 C481.61443258 92.16935858 484.46087545 92.17319476 487.30737305 92.17700195 C489.34407162 92.18326592 491.38076904 92.18991266 493.41746521 92.19691467 C498.95896632 92.21433085 504.5004588 92.22487821 510.0419805 92.2331202 C513.50364885 92.23826925 516.96531452 92.24434503 520.42698097 92.25063133 C531.25627443 92.26968548 542.08556106 92.28391592 552.91486806 92.2922433 C565.41803998 92.30201634 577.9210349 92.32833679 590.42414445 92.36874419 C600.08624729 92.39889911 609.74829938 92.4137116 619.41044837 92.41702431 C625.18207988 92.41937556 630.95352233 92.42834592 636.72510338 92.45348549 C642.15633396 92.47676004 647.58725093 92.48100178 653.01851845 92.47072411 C655.00990466 92.47022848 657.00130628 92.47655666 658.99264526 92.49028015 C661.71602734 92.50799556 664.43828352 92.50089467 667.16166687 92.48774719 C668.3376191 92.50420106 668.3376191 92.50420106 669.53732795 92.52098733 C675.71017428 92.44927494 681.15470027 90.83015867 685.62367839 86.3849619 C689.21155052 82.09077753 690.32399138 77.53644089 690 72 C688.85042505 66.38321713 686.48389301 62.64968036 682 59 C677.15669864 56.03623118 673.02689749 55.56966846 667.4737854 55.61231995 C666.62900804 55.60693441 665.78423068 55.60154887 664.913854 55.59600013 C662.09036927 55.5817219 659.26735345 55.58882397 656.44384766 55.59594727 C654.41655603 55.5902436 652.38926761 55.58327935 650.36198425 55.57514954 C644.85986547 55.55720177 639.35790604 55.55838971 633.85576677 55.56409192 C629.26083616 55.56718172 624.66593624 55.56109356 620.07100999 55.55505317 C609.22960571 55.54100395 598.38828021 55.54257229 587.546875 55.55395508 C576.36670967 55.56543424 565.18678428 55.55136481 554.00665057 55.5245586 C544.40391909 55.50239749 534.8012629 55.49576524 525.19850767 55.50163502 C519.46494832 55.50500509 513.73154274 55.50258615 507.99800491 55.48538399 C502.6052802 55.46991073 497.21291067 55.47387489 491.82019997 55.49268913 C489.84333552 55.49637406 487.86644474 55.49326937 485.88960457 55.48280334 C483.18605556 55.46958503 480.48368091 55.48114827 477.78018188 55.49879456 C477.00215104 55.48918955 476.22412019 55.47958454 475.42251265 55.46968848 C468.69198483 55.55976915 463.30472337 57.57397539 458.625 62.5 Z M88 157 C85.33406481 161.79868335 84.41472753 165.53745693 85 171 C86.77808931 176.96182887 89.78677735 180.73034774 95 184 C100.28695288 186.22857803 105.03056936 186.2819603 110.66469383 186.25447559 C111.63665825 186.25768207 112.60862266 186.26088855 113.61004055 186.26419219 C116.88041657 186.2725208 120.15061083 186.26655783 123.42098999 186.26069641 C125.78397862 186.26371578 128.14696627 186.26760419 130.50995219 186.27228898 C135.65453834 186.28044891 140.79908814 186.28236185 145.9436779 186.27878571 C153.59391841 186.27348183 161.24412034 186.27957083 168.89435665 186.28786864 C183.35208941 186.30311876 197.80980467 186.30481267 212.26754378 186.30234561 C223.43104641 186.30051378 234.59454329 186.30227024 245.7580452 186.30657005 C247.36123638 186.30717245 248.96442756 186.30777365 250.56761874 186.30837366 C252.98340194 186.3092809 255.39918514 186.31018956 257.81496834 186.31110601 C280.27933227 186.31953711 302.74369403 186.32387014 325.20805931 186.31969929 C326.0551404 186.31954291 326.90222148 186.31938654 327.77497169 186.31922542 C332.06842577 186.31841962 336.36187985 186.31757385 340.65533392 186.31671212 C341.50804473 186.31654103 342.36075554 186.31636994 343.23930608 186.31619367 C344.96369489 186.31584702 346.68808369 186.31549849 348.4124725 186.31514808 C375.24634883 186.3097904 402.0801923 186.31772199 428.9140625 186.33618164 C459.05452286 186.35689163 489.19496287 186.36762627 519.33543074 186.36360615 C522.54839492 186.3632108 525.76135909 186.36284926 528.97432327 186.36250877 C529.76545011 186.36241804 530.55657695 186.36232731 531.37167733 186.36223383 C543.32122255 186.36106723 555.27074723 186.36772091 567.22028732 186.37832069 C580.80832593 186.39036152 594.39631927 186.39194456 607.98435853 186.37953053 C615.59013777 186.37289311 623.1958088 186.37455326 630.80157942 186.38811904 C636.47731897 186.39731522 642.15295405 186.39086765 647.82868309 186.37827124 C650.12741948 186.37560887 652.42616842 186.37803877 654.72489254 186.38600711 C657.84466784 186.39607299 660.96387176 186.38772512 664.08362389 186.37473011 C664.98018263 186.38203946 665.87674137 186.3893488 666.80046856 186.39687964 C673.14106287 186.34197708 678.90250446 185.46962482 684.0234375 181.38671875 C688.02959113 176.35008051 690.28260901 172.22674636 690 165.625 C689.24125311 160.3405511 686.75478748 156.71112716 683 153 C676.43940823 148.84942153 670.04115976 148.85374544 662.52361679 148.86857224 C661.55985931 148.8665196 660.59610183 148.86446697 659.60313958 148.86235213 C656.35469671 148.85667121 653.1062961 148.85814073 649.85784912 148.85955811 C647.51293617 148.8569751 645.16802367 148.85396213 642.82311177 148.8505547 C637.04220016 148.84332209 631.26129961 148.84078171 625.4803838 148.84022565 C618.55686249 148.83931189 611.63334973 148.83264401 604.70983209 148.82587883 C587.97640729 148.80981833 571.24298339 148.80391566 554.50955227 148.79913008 C546.59449052 148.79679436 538.67942949 148.79319176 530.76436831 148.7894347 C503.67307638 148.77659967 476.58178486 148.76588003 449.49048996 148.7624321 C447.78985245 148.76221047 446.08921493 148.76198868 444.38857742 148.76176675 C442.68382411 148.76154611 440.97907081 148.76132562 439.2743175 148.7611053 C435.85426505 148.76066274 432.4342126 148.76021563 429.01416016 148.75976562 C428.16618593 148.75965623 427.3182117 148.75954684 426.44454128 148.75943414 C398.94332283 148.75580277 371.44213072 148.73987946 343.94092236 148.71657526 C314.86834554 148.69198451 285.79578379 148.67825963 256.72319627 148.67706418 C253.53238566 148.67689272 250.34157506 148.6766773 247.15076447 148.67642975 C245.97225449 148.6763461 245.97225449 148.6763461 244.76993624 148.67626075 C232.12159668 148.67510971 219.47328415 148.66408323 206.82495372 148.64954269 C194.11440461 148.63518316 181.40389019 148.63193765 168.69333521 148.63998267 C161.80624777 148.64404866 154.91924336 148.64331621 148.03216743 148.62892532 C141.72930218 148.61623296 135.42659677 148.6173429 129.12373188 148.62951604 C126.84176978 148.63148112 124.55979654 148.62835739 122.27785012 148.61967167 C119.17828798 148.60861944 116.07929399 148.61603954 112.97974777 148.6280632 C112.09194758 148.62046801 111.20414738 148.61287282 110.28944415 148.60504746 C101.5930248 148.67797037 94.11173378 150.59723128 88 157 Z M88 251 C85.40711828 255.82812459 84.32902257 259.53632663 85 265 C86.98970298 271.19413487 90.30297693 274.92017083 96 278 C99.71068734 279.23689578 103.14885705 279.1480896 107.01359558 279.14717102 C108.2524154 279.15268605 108.2524154 279.15268605 109.51626188 279.1583125 C112.29364371 279.16935723 115.07098815 279.17319453 117.84838867 279.17700195 C119.83582681 279.18326603 121.82326378 279.18991278 123.81069946 279.19691467 C129.21790724 279.21432995 134.62510617 279.22487798 140.03233504 279.2331202 C143.41024857 279.23826948 146.78815935 279.24434526 150.16607094 279.25063133 C160.73373571 279.2696853 171.30139349 279.28391573 181.86907214 279.2922433 C194.06944333 279.30201602 206.2696331 279.32833568 218.46994036 279.36874419 C227.89849953 279.39890118 237.32700669 279.4137118 246.75561315 279.41702431 C252.38751826 279.41937534 258.0192296 279.4283428 263.65108299 279.45348549 C268.95099172 279.47676366 274.25057907 279.48100034 279.55052567 279.47072411 C281.49353542 279.47022857 283.43656099 279.47655421 285.37952232 279.49028015 C288.03722749 279.50800163 290.69377963 279.50089184 293.35148621 279.48774719 C294.11599962 279.49871644 294.88051303 279.50968568 295.66819352 279.52098733 C301.78219066 279.44824329 307.20233133 277.78151085 311.62441987 273.3849619 C315.21831112 269.08114453 316.30587275 264.54394355 316 259 C314.98318444 253.19567784 312.35040867 249.85782171 307.81640625 246.2265625 C303.1623108 243.08379697 299.42427011 242.71210258 293.85269165 242.73930359 C292.6104735 242.73356527 292.6104735 242.73356527 291.34316003 242.72771102 C288.56415828 242.71738033 285.7853631 242.72137331 283.00634766 242.7253418 C281.01551624 242.72099534 279.0246865 242.71581241 277.03385925 242.70985413 C271.62269 242.69644516 266.21159052 242.69588762 260.80040789 242.69841743 C256.28492556 242.69948594 251.76945742 242.69460678 247.25397813 242.689812 C236.60159967 242.67871005 225.94925646 242.67828315 215.296875 242.68432617 C204.30420447 242.69036633 193.31166193 242.67805542 182.31901324 242.6567561 C172.88451369 242.63914737 163.45005491 242.63313763 154.01553953 242.63639385 C148.37928818 242.63820815 142.74312811 242.63555589 137.10689163 242.62167931 C131.80618203 242.60911763 126.50567207 242.61102941 121.20496559 242.62409019 C119.25951254 242.62645921 117.31404551 242.62370967 115.36860847 242.61546707 C112.71259842 242.60502539 110.0572614 242.61307953 107.40127563 242.6257782 C106.63161866 242.61840391 105.86196168 242.61102963 105.06898177 242.60343188 C97.56410405 242.67890433 92.78508968 245.30962309 88 251 Z M394.625 250.1875 C391.93569642 254.84206389 390.47711405 259.86268433 391.375 265.25 C393.26596384 270.92289152 396.52978915 274.49382499 401.6445713 277.61248875 C405.64037545 279.26480317 409.1254384 279.42097678 413.37435913 279.38768005 C414.61702386 279.39575836 414.61702386 279.39575836 415.88479292 279.40399987 C418.65300257 279.4182753 421.42073375 279.41117675 424.18896484 279.40405273 C426.17684818 279.40975655 428.16472825 279.41672086 430.15260315 279.42485046 C435.54728827 279.44279662 440.94181085 279.4416106 446.33651686 279.43590808 C450.84197588 279.43281803 455.34740361 279.43890671 459.85285819 279.44494683 C470.48331214 279.45899553 481.11368573 279.45742815 491.74414062 279.44604492 C502.70618146 279.43456591 513.66797758 279.44863504 524.62998617 279.4754414 C534.04588301 279.4976037 543.46170308 279.50423449 552.87762415 279.49836498 C558.49940196 279.49499519 564.12102293 279.49741202 569.74277878 279.51461601 C575.03044662 279.53009118 580.31775225 279.52612302 585.60540581 279.50731087 C587.54356886 279.50362646 589.48175879 279.50672912 591.41989708 279.51719666 C594.07090519 279.53041863 596.72071636 279.51884866 599.37167358 279.50120544 C600.13414064 279.51081045 600.89660769 279.52041546 601.68217981 279.53031152 C607.90157656 279.44545946 613.34529778 277.62088436 617.83984375 273.18359375 C618.20207031 272.60738281 618.56429687 272.03117187 618.9375 271.4375 C619.31777344 270.85871094 619.69804688 270.27992188 620.08984375 269.68359375 C622.29880457 265.59749026 622.47390514 261.53225643 622 257 C619.88139162 251.31320908 616.51881243 247.54284953 611.3554287 244.38011932 C607.36109688 242.73721315 603.87073354 242.57609976 599.62564087 242.60559082 C598.79719772 242.59949972 597.96875457 242.59340861 597.11520708 242.58713293 C594.3470093 242.57052125 591.57927243 242.57527611 588.81103516 242.58007812 C586.82315087 242.57273673 584.83527085 242.56415029 582.84739685 242.55441284 C577.45272119 242.53219543 572.05819827 242.52926629 566.66348314 242.53116035 C562.15802224 242.53128005 557.65259371 242.52271638 553.14714181 242.51438284 C542.51669237 242.49514786 531.88632145 242.49226528 521.25585938 242.49902344 C510.29377595 242.50566426 499.33202901 242.48279826 488.37001383 242.44570971 C478.95411478 242.41500961 469.53832395 242.40365303 460.12237585 242.40754652 C454.50055455 242.40961372 448.87899508 242.40413906 443.25722122 242.37965393 C437.96949742 242.3573845 432.68232053 242.35926658 427.39459419 242.37958145 C425.45642611 242.38299114 423.5182212 242.37790422 421.58010292 242.36359787 C418.92887552 242.34538145 416.27949883 242.35817133 413.62832642 242.37854004 C412.48462583 242.35976327 412.48462583 242.35976327 411.31782019 242.34060717 C404.34131565 242.45509822 399.66648228 245.54402948 394.625 250.1875 Z M699 253 C697.21206956 258.36379133 697.30944803 263.88772338 699.0625 269.25 C702.17556432 273.66854291 705.82172996 277.27390999 711 279 C713.69684641 279.10017177 716.36796072 279.14343445 719.0650177 279.14044189 C719.89639226 279.14341302 720.72776682 279.14638414 721.58433455 279.1494453 C724.38020775 279.15814193 727.17603817 279.15964136 729.97192383 279.16113281 C731.97245882 279.16576029 733.97299293 279.17078486 735.973526 279.17617798 C741.41572608 279.18931046 746.85791382 279.19574855 752.30012727 279.20018864 C755.69879654 279.2031179 759.09746242 279.20722242 762.49612999 279.21169281 C773.12572935 279.22536977 783.75532098 279.23503554 794.38492852 279.2388947 C806.66282704 279.24337654 818.9406143 279.26092952 831.21847898 279.2898953 C840.70390738 279.31149785 850.18930444 279.32159821 859.67475718 279.32293582 C865.34233066 279.32398484 871.00979957 279.32991333 876.67734718 279.34775543 C882.00840036 279.36421147 887.33927009 279.36640358 892.67033958 279.35761642 C894.627084 279.35684474 896.58383818 279.36120606 898.54055786 279.37107468 C901.21193503 279.38375757 903.8826589 279.37793732 906.55403137 279.36749268 C907.71537644 279.37957728 907.71537644 279.37957728 908.90018302 279.39190602 C914.54801549 279.34026473 918.67702232 278.14278863 922.86328125 274.28125 C923.34152344 273.6934375 923.81976562 273.105625 924.3125 272.5 C924.80363281 271.9121875 925.29476562 271.324375 925.80078125 270.71875 C928.84654418 266.35348716 928.66355254 261.08974958 928 256 C925.76732094 250.35093703 922.3453242 246.9050675 917 244 C913.30029749 242.76676583 909.87745992 242.85190855 906.02436829 242.85282898 C905.20257196 242.84915229 904.38077564 242.8454756 903.53407639 242.8416875 C900.77051406 242.83064305 898.00698931 242.82680552 895.2434082 242.82299805 C893.26582215 242.81673395 891.28823727 242.8100872 889.31065369 242.80308533 C883.93030458 242.78567024 878.54996436 242.77512207 873.16959405 242.7668798 C869.80843149 242.76173047 866.44727168 242.75565469 863.08611107 242.74936867 C852.57077203 242.73031474 842.05544003 242.7160843 831.54008704 242.7077567 C819.40027599 242.69798405 807.26064726 242.67166454 795.12090045 242.63125581 C785.73905002 242.60109839 776.35725186 242.58628815 766.9753539 242.58297569 C761.37139406 242.5806247 755.76762895 242.57165784 750.16372108 242.54651451 C744.89007672 242.5232356 739.61675532 242.51899995 734.34307289 242.52927589 C732.40973842 242.52977141 730.47638807 242.52344629 728.54310226 242.50971985 C725.89853243 242.49199712 723.2551212 242.49910874 720.61054993 242.51225281 C719.84992746 242.50128356 719.089305 242.49031432 718.30563337 242.47901267 C709.74719258 242.58133479 703.86341522 246.07331772 699 253 Z M88 344 C84.62390908 350.07696365 84.09652451 354.83783577 86 361.5 C88.13060136 366.00586509 91.93005552 369.23462506 96 372 C99.18671321 373.03167402 102.13069128 373.12804454 105.46740341 373.13422108 C107.14397919 373.14090784 107.14397919 373.14090784 108.85442519 373.14772969 C110.08242032 373.14754533 111.31041545 373.14736097 112.57562256 373.14717102 C114.53238745 373.15268605 114.53238745 373.15268605 116.52868295 373.1583125 C120.1527058 373.16832472 123.7767121 373.17204803 127.40074682 373.17470181 C131.30816698 373.17860709 135.21557405 373.18818518 139.12298584 373.19691467 C148.56007036 373.21667127 157.99715593 373.22674362 167.43425596 373.23564246 C171.87825234 373.2400261 176.32224754 373.24539266 180.76624298 373.25063133 C195.5383212 373.26764172 210.31039869 373.28213649 225.0824852 373.28938007 C228.9153417 373.29128996 232.7481982 373.2932103 236.58105469 373.29516602 C238.01000904 373.29589163 238.01000904 373.29589163 239.46783116 373.2966319 C254.9042746 373.30493447 270.34064061 373.33027608 285.77705023 373.36274669 C301.62451096 373.39581032 317.47193232 373.41382815 333.31942773 373.41702431 C342.21757577 373.4191899 351.11561084 373.42794584 360.01372528 373.45348549 C367.59064613 373.47518285 375.16742657 373.48324762 382.74437496 373.47351871 C386.60971225 373.46897137 390.47475976 373.47088518 394.34005737 373.49028015 C398.53239014 373.51113433 402.72407915 373.50093524 406.91644287 373.48774719 C408.13551512 373.49871644 409.35458736 373.50968568 410.61060119 373.52098733 C418.0302849 373.46455192 423.79549774 372.82064388 429.51481032 367.62348729 C433.63202295 363.08765607 435.26966453 358.6717085 435 352.625 C434.24125311 347.3405511 431.75478748 343.71112716 428 340 C422.70232782 336.64841148 417.68684011 335.87670707 411.5060463 335.86857224 C410.40785513 335.86473109 409.30966397 335.86088995 408.17819428 335.8569324 C406.9771398 335.85779888 405.77608532 335.85866537 404.53863525 335.85955811 C403.25847778 335.85658698 401.97832031 335.85361586 400.65937018 335.8505547 C397.10794425 335.84249668 393.55653854 335.8406958 390.00510454 335.83995724 C386.17403148 335.83810461 382.34296887 335.83055625 378.51190186 335.82382202 C370.13582916 335.81024697 361.75976126 335.80421535 353.38367939 335.79981136 C348.15275534 335.7970477 342.92183314 335.79281013 337.69091034 335.78830719 C323.20530946 335.7761159 308.71971006 335.76581612 294.23410416 335.7624321 C292.84376875 335.76210275 292.84376875 335.76210275 291.42534576 335.76176675 C290.49625173 335.76154847 289.56715769 335.76133019 288.6099093 335.7611053 C286.72724422 335.76066183 284.84457914 335.76021527 282.96191406 335.75976562 C281.56111696 335.75943348 281.56111696 335.75943348 280.13202092 335.75909463 C265.0002582 335.75514665 249.86854363 335.737692 234.73679951 335.7144061 C219.19779532 335.69068666 203.65881529 335.67822999 188.1197927 335.67706418 C179.39658977 335.67614779 170.67344961 335.67040436 161.95026398 335.65224457 C154.52236357 335.63683563 147.09454532 335.63172782 139.66663197 335.63998267 C135.87817183 335.64388629 132.08987711 335.64297374 128.30143738 335.62892532 C124.19060553 335.61382105 120.08014556 335.62206133 115.96929932 335.63250732 C114.77716772 335.62445092 113.58503613 335.61639452 112.35677934 335.60809398 C102.81400955 335.66481787 94.78373879 336.89322603 88 344 Z M547.625 340.9375 C547.08875 341.618125 546.5525 342.29875 546 343 C545.443125 343.680625 544.88625 344.36125 544.3125 345.0625 C541.3875402 349.38029779 541.43038822 353.97927903 542 359 C543.64158038 364.54775055 546.46125202 367.90015761 551.21875 371.08984375 C554.65643346 372.84637938 557.91298771 373.12592304 561.73338699 373.13422108 C563.16438339 373.14090784 563.16438339 373.14090784 564.6242888 373.14772969 C566.19196964 373.14745315 566.19196964 373.14745315 567.7913208 373.14717102 C568.90390377 373.15084771 570.01648674 373.1545244 571.16278434 373.1583125 C574.90442596 373.16935759 578.64603982 373.17319457 582.38769531 373.17700195 C585.06492783 373.1832659 587.74215738 373.1898998 590.41938782 373.19691467 C598.46231755 373.21666409 606.50524852 373.2267427 614.54819643 373.23564246 C618.33669468 373.24002727 622.12519152 373.24539352 625.91368866 373.25063133 C638.50857885 373.26764098 651.10346817 373.28213544 663.69836807 373.28938007 C666.96574149 373.29128993 670.23311489 373.29321027 673.50048828 373.29516602 C674.31256562 373.29564976 675.12464297 373.2961335 675.96132872 373.2966319 C689.11832802 373.30493337 702.27523644 373.33027343 715.43219605 373.36274669 C728.94279141 373.39582076 742.45334057 373.41382909 755.96397662 373.41702431 C763.54868632 373.41918893 771.13326343 373.42793065 778.71793365 373.45348549 C785.17679818 373.47519715 791.63549789 373.48324062 798.09439477 373.47351871 C801.38864472 373.46897545 804.68248382 373.47304569 807.97670174 373.49028015 C811.55167018 373.50793724 815.12577598 373.50092224 818.70074463 373.48774719 C819.7369423 373.49871644 820.77313998 373.50968568 821.84073758 373.52098733 C828.70390413 373.45992309 834.35487437 372.38196045 839.52178025 367.5880869 C843.11316312 363.53924954 844.77243243 360.01018023 845.375 354.6875 C844.79516328 348.98577228 842.7436909 344.84333038 838.8125 340.6875 C831.43930288 336.26358173 824.25927361 335.56304819 815.80395508 335.61904907 C814.70822331 335.6143691 813.61249155 335.60968913 812.48355579 335.60486734 C808.82875615 335.5929452 805.17433338 335.602364 801.51953125 335.61181641 C798.89244366 335.60774949 796.26535779 335.60240693 793.63827515 335.59588623 C787.25361977 335.5825758 780.86907046 335.58541458 774.484411 335.59412415 C769.29352307 335.60091092 764.10266478 335.60181314 758.91177368 335.5985527 C758.17179478 335.598093 757.43181589 335.59763331 756.66941339 335.59715968 C755.16596277 335.59620046 753.66251215 335.59522782 752.15906155 335.5942419 C738.07512212 335.58569589 723.99124136 335.59550974 709.90731156 335.611643 C697.83368615 335.62504547 685.76014729 335.62271716 673.68652344 335.60888672 C659.65153295 335.59281695 645.61659382 335.58651979 631.58159542 335.59572351 C630.08380573 335.59667911 628.58601603 335.59762223 627.08822632 335.5985527 C626.35136607 335.59901553 625.61450581 335.59947836 624.85531646 335.59995521 C619.67319521 335.60254091 614.49110666 335.59818318 609.30899048 335.59111404 C602.32890487 335.58180115 595.34898513 335.58847153 588.36891556 335.60579681 C585.80872493 335.60976017 583.24852055 335.60863022 580.68833542 335.60200882 C577.19072037 335.59379764 573.69362685 335.60411058 570.19604492 335.61904907 C569.18562543 335.61235691 568.17520594 335.60566474 567.13416767 335.59876978 C560.0943311 335.65699288 553.24120222 336.35586135 547.625 340.9375 Z M88 438 C85.40711828 442.82812459 84.32902257 446.53632663 85 452 C86.99339464 457.89008698 89.95109265 461.4550225 95 465 C99.03703525 466.34567842 102.92951106 466.14266056 107.13937664 466.13701439 C108.09099579 466.13966622 109.04261493 466.14231804 110.02307102 466.14505023 C113.24225305 466.1527678 116.46139709 466.15330334 119.68058777 466.15390015 C121.99973875 466.15791314 124.31888903 466.16235109 126.63803846 466.1671797 C132.36295666 466.17790968 138.0878664 466.18390544 143.81279297 466.18788858 C150.66764246 466.19289506 157.52248003 466.20362214 164.37732249 466.21437032 C180.94702276 466.2400085 197.51672767 466.25503716 214.08644208 466.26788078 C219.57372577 466.2721346 225.06100913 466.2767003 230.5482924 466.2814641 C259.71557553 466.30672252 288.88285921 466.32877379 318.05015087 466.34119225 C324.80890594 466.34411364 331.56766099 466.34708115 338.32641602 466.35009766 C339.58596857 466.35065402 339.58596857 466.35065402 340.87096664 466.35122162 C368.10154961 466.36337955 395.33206799 466.3943274 422.56262062 466.43601918 C450.54987414 466.47879147 478.53709353 466.50543127 506.52438063 466.51066696 C510.47602971 466.51140743 514.42767875 466.51231811 518.37932777 466.51332474 C519.54593003 466.51361066 519.54593003 466.51361066 520.7361 466.51390236 C533.26017413 466.51741802 545.78416742 466.53772543 558.30821185 466.56412137 C570.89353834 466.59024682 583.4787713 466.59800156 596.06412103 466.58702008 C602.88429644 466.58156424 609.70423697 466.58414775 616.52437401 466.60948563 C622.76506125 466.6318804 629.00530475 466.63131404 635.24599925 466.61228175 C637.5064737 466.60946804 639.76697762 466.61515574 642.02740445 466.63009469 C645.09595211 466.64913823 648.16290724 466.63745314 651.23141766 466.61803246 C652.11279049 466.63088168 652.99416332 466.6437309 653.90224442 466.65696949 C660.03594752 466.57144323 664.29068456 464.99601654 669 461 C672.57884441 456.58211143 674.25066561 451.699918 674 446 C672.97209187 440.25453454 670.36930677 436.86806352 665.9140625 433.2265625 C660.56253529 429.79721649 655.84813492 429.71473864 649.67420387 429.74552441 C648.72673094 429.74231793 647.779258 429.73911145 646.80307376 429.73580781 C643.60999823 429.72746859 640.41710835 429.73344583 637.22402954 429.73930359 C634.91893845 429.7362847 632.61384836 429.73239654 630.30876005 429.72771102 C623.96007419 429.71738848 617.61144453 429.71962365 611.26275396 429.72389162 C605.12362283 429.72707051 598.98450119 429.718956 592.84537472 429.71213136 C578.73485751 429.69687693 564.62435822 429.69518778 550.51383449 429.69765439 C539.61870133 429.69948586 528.72357405 429.69773051 517.82844162 429.69342995 C516.26406948 429.69282755 514.69969733 429.69222635 513.13532519 429.69162634 C510.77806653 429.69071911 508.42080788 429.68981044 506.06354923 429.68889399 C484.14182585 429.68046222 462.22010468 429.67613031 440.2983799 429.68030071 C439.47166762 429.68045709 438.64495535 429.68061346 437.79319118 429.68077458 C433.60293 429.68158038 429.41266883 429.68242615 425.22240765 429.68328788 C423.97407286 429.68354451 423.97407286 429.68354451 422.70051919 429.68380633 C421.01756103 429.68415298 419.33460288 429.68450151 417.65164472 429.68485192 C391.46241129 429.69020961 365.27321152 429.68227823 339.08398438 429.66381836 C309.67088177 429.64311045 280.25780003 429.63237334 250.84468973 429.63639385 C247.70952312 429.6367892 244.57435652 429.63715075 241.43918991 429.63749123 C240.66721326 429.63758196 239.8952366 429.63767269 239.09986671 429.63776617 C227.4371707 429.638933 215.77449572 429.63227733 204.11180496 429.62167931 C190.85053152 429.60964104 177.58930447 429.60805247 164.32803036 429.62046947 C157.558654 429.62652392 150.78937388 429.62740749 144.02000237 429.61546707 C137.82702853 429.60467007 131.6342219 429.60763762 125.44125609 429.62172876 C123.197016 429.62439281 120.95276306 429.62195607 118.70853551 429.61399289 C115.66464613 429.60393926 112.62134385 429.61226424 109.57747841 429.62526989 C108.70046764 429.61796054 107.82345687 429.6106512 106.91987002 429.60312036 C98.96485098 429.67386475 93.22285756 431.61650743 88 438 Z M763.0625 437.0625 C759.46461523 442.18676013 759.47824558 446.92867579 760 453 C761.87602908 458.23313374 765.04727578 462.15568912 769.79547119 465.12147522 C772.57896512 466.23072287 774.83879855 466.27553276 777.83496094 466.30639648 C779.0100824 466.32238388 780.18520386 466.33837128 781.39593506 466.35484314 C783.29596283 466.36288719 783.29596283 466.36288719 785.234375 466.37109375 C786.54150452 466.38012222 787.84863403 466.3891507 789.19537354 466.39845276 C791.96263086 466.41492703 794.72976747 466.42263953 797.49707031 466.42553711 C801.02557614 466.43090851 804.55293034 466.46854084 808.08111191 466.51428127 C811.46552569 466.55137276 814.84976511 466.5525746 818.234375 466.55859375 C819.49296326 466.57812607 820.75155151 466.59765839 822.04827881 466.61778259 C829.3084845 466.58063143 834.46385378 465.9419928 840 461 C844.04688427 456.43428441 845.24421708 451.99349416 845 446 C843.87826326 440.0785243 840.8822264 435.53230205 836 432 C832.31499977 430.26747771 829.38546965 429.74113005 825.3269043 429.70947266 C824.21192062 429.69671295 823.09693695 429.68395325 821.94816589 429.67080688 C820.15431206 429.66746841 820.15431206 429.66746841 818.32421875 429.6640625 C817.08509232 429.6574057 815.84596588 429.6507489 814.56929016 429.64389038 C811.9492847 429.63377178 809.3292535 429.62907311 806.70922852 429.62939453 C804.03317242 429.62955711 801.35780057 429.6156675 798.68188477 429.58837891 C794.81245102 429.55165208 790.94380966 429.54191779 787.07421875 429.5390625 C785.28947395 429.51750595 785.28947395 429.51750595 783.46867371 429.49551392 C775.13943424 429.54109391 768.73235545 430.60616766 763.0625 437.0625 Z " fill="#1C9FD6" transform="translate(158,248)"/>
<path d="M0 0 C40.26 0 80.52 0 122 0 C122 2.97 122 5.94 122 9 C480.05 9 838.1 9 1207 9 C1207 6.36 1207 3.72 1207 1 C1208 0 1208 0 1210.24701023 -0.12304783 C1211.74999369 -0.12166514 1211.74999369 -0.12166514 1213.28334045 -0.12025452 C1214.42664605 -0.12163201 1215.56995165 -0.12300951 1216.74790287 -0.12442875 C1218.65365164 -0.11903159 1218.65365164 -0.11903159 1220.59790039 -0.11352539 C1221.9596961 -0.11321927 1223.32149198 -0.11335217 1224.68328762 -0.11389065 C1228.34216312 -0.11411714 1232.00100615 -0.10830601 1235.65987396 -0.10128021 C1239.08863939 -0.09560062 1242.51739677 -0.09531793 1245.94616699 -0.09460449 C1255.98494899 -0.08934955 1266.0237249 -0.0753885 1276.0625 -0.0625 C1309.6915625 -0.0315625 1309.6915625 -0.0315625 1344 0 C1344 56.76 1344 113.52 1344 172 C900.48 172 456.96 172 0 172 C0 115.24 0 58.48 0 0 Z " fill="#394086" transform="translate(0,917)"/>
<path d="M0 0 C334.29 0 668.58 0 1013 0 C1013 53.13 1013 106.26 1013 161 C678.71 161 344.42 161 0 161 C0 107.87 0 54.74 0 0 Z M595.734375 54.01171875 C588.42157825 61.77140863 585.41094727 69.14560357 584.90234375 79.7890625 C585.20239106 89.65461818 589.60745509 98.0268122 596.6875 104.75 C603.61204008 110.440335 612.0320215 113.31886146 621 113 C631.37129764 111.58634999 639.19275965 107.71623049 645.875 99.625 C652.35501334 90.52892558 652.97890388 81.94592518 652 71 C651.17265599 67.57243196 649.92761271 64.93975153 648 62 C647.49082031 61.22011719 646.98164062 60.44023438 646.45703125 59.63671875 C639.14080544 49.40739616 631.17608414 47.03210088 619 45 C610.62258518 45 601.92542192 48.51449606 595.734375 54.01171875 Z M748 57 C741.509877 65.58138486 739.01223146 74.43917777 740.34375 85.13671875 C742.57140363 94.85618367 747.74779238 102.45846899 756 108 C764.89423344 112.93644348 773.89193194 114.1408958 783.6875 111.4375 C794.29644656 107.75453632 800.48821561 101.41808872 805.8125 91.6875 C809.04552176 81.64811664 808.52128416 71.93618512 803.70703125 62.453125 C798.49957995 54.13237171 791.69995595 48.24524338 782 46 C768.60528956 44.6673283 757.31140216 46.54964951 748 57 Z M905 55 C896.51189441 64.98972575 895.01585859 74.2933641 896 87 C897.92794574 95.82006314 903.35422902 102.68988243 910.6875 107.8125 C918.7822623 112.43136824 927.91751624 114.11051305 937 112 C946.61693168 109.28790799 954.01287657 103.91090146 958.96484375 95.1484375 C962.99710402 86.77959542 963.93241793 79.15469499 962 70 C958.87739641 61.31101609 954.46570207 53.88739847 946.16796875 49.50390625 C931.85408856 43.14818335 916.9318654 43.59985766 905 55 Z M65 69 C61.48337511 74.77731232 60.40680031 79.43050993 62 86 C63.69872676 91.12706622 66.2447491 94.39341802 71 97 C75.87740984 98.62004101 80.09420986 99.25087522 85.22369957 99.25447559 C85.91962495 99.25768207 86.61555033 99.26088855 87.33256435 99.26419219 C89.6579415 99.27247492 91.98305993 99.26657405 94.30844116 99.26069641 C95.99511338 99.26371788 97.68178424 99.26760735 99.36845267 99.27228898 C103.99852901 99.28257825 108.62852801 99.28038478 113.25861073 99.27610838 C118.25394337 99.27364285 123.24925732 99.28265317 128.24458313 99.29014587 C138.02911878 99.3028997 147.81362699 99.30468571 157.59816955 99.30234561 C165.55082774 99.30056306 173.5034776 99.30231074 181.4561348 99.30657005 C183.15349851 99.30746284 183.15349851 99.30746284 184.88515241 99.30837366 C187.18390309 99.3095854 189.48265377 99.31079953 191.78140445 99.31201603 C213.34252261 99.3228942 234.90362513 99.32072776 256.46474417 99.31463119 C276.19084425 99.30946176 295.91689495 99.32071767 315.64298527 99.33972941 C335.89646727 99.35909983 356.1499259 99.3673652 376.40341723 99.36360615 C387.77471264 99.36169291 399.14596602 99.36419373 410.51725388 99.37832069 C420.19769978 99.39022531 429.87807777 99.39164968 439.55852459 99.37953053 C444.49733222 99.37363542 449.43601559 99.37255993 454.37481499 99.38453293 C458.89751993 99.39536977 463.41999653 99.39231454 467.94269069 99.37827124 C469.57722015 99.37561826 471.21176738 99.37800971 472.84627943 99.38600711 C486.26571704 99.7428058 486.26571704 99.7428058 498.15625 94.28125 C498.5996875 93.6934375 499.043125 93.105625 499.5 92.5 C499.9640625 91.9121875 500.428125 91.324375 500.90625 90.71875 C503.92044708 85.98215458 503.64090409 80.39243441 503 75 C501.28841088 70.36412634 498.71109694 67.14260316 494.5 64.5625 C489.236766 62.21284196 484.79370061 61.87439122 479.05363083 61.86857224 C478.01826941 61.86549328 478.01826941 61.86549328 476.96199161 61.86235213 C474.643975 61.85668775 472.32601791 61.85813869 470.00799561 61.85955811 C468.33130012 61.85697415 466.65460525 61.85396091 464.97791123 61.8505547 C460.36613987 61.84248508 455.75438408 61.84069515 451.1426065 61.83995724 C446.17041974 61.83810664 441.19824105 61.8305593 436.22605896 61.82382202 C425.3521317 61.81023879 414.47820813 61.80421409 403.6042738 61.79981136 C396.81550964 61.79704912 390.0267469 61.79281182 383.2379837 61.78830719 C364.44433049 61.7761149 345.65067842 61.76581527 326.85702133 61.7624321 C325.05270416 61.76210275 325.05270416 61.76210275 323.21193613 61.76176675 C322.00617193 61.76154847 320.80040774 61.76133019 319.55810523 61.7611053 C317.11474593 61.76066183 314.67138664 61.76021527 312.22802734 61.75976562 C310.41003948 61.75943348 310.41003948 61.75943348 308.55532458 61.75909463 C288.91316477 61.75514592 269.27104205 61.73768951 249.62889656 61.7144061 C229.46588207 61.69069803 209.30288619 61.67823051 189.13985753 61.67706418 C177.81771274 61.67614715 166.49561628 61.6703878 155.1734848 61.65224457 C145.53325256 61.63685099 135.89308358 61.63171877 126.25284138 61.63998267 C121.33429679 61.64389169 116.41587964 61.64294719 111.49735069 61.62892532 C106.9930753 61.61620182 102.48902329 61.61737032 97.98474827 61.62951604 C96.35688622 61.63147571 94.72900842 61.62838213 93.10116848 61.61967167 C77.78294113 61.37657551 77.78294113 61.37657551 65 69 Z " fill="#394086" transform="translate(158,50)"/>
<path d="M0 0 C1.49010717 -0.00208955 2.98021331 -0.00505447 4.47031721 -0.00880873 C8.55646885 -0.01657551 12.64252559 -0.01194815 16.72867562 -0.00525283 C21.17737409 -0.00017086 25.62605823 -0.00670265 30.07475466 -0.01173949 C37.86886679 -0.01895922 45.66295122 -0.01874596 53.45706463 -0.01364517 C65.04712805 -0.00608076 76.6371681 -0.0099474 88.22723137 -0.01606179 C108.92668766 -0.02659532 129.6261316 -0.02567969 150.32558906 -0.01990396 C168.43931927 -0.01487448 186.55304494 -0.01355869 204.6667757 -0.01594925 C205.86791732 -0.01610202 207.06905895 -0.01625479 208.3065988 -0.01641219 C213.1823122 -0.01703486 218.05802559 -0.01767166 222.93373898 -0.01833172 C268.67821355 -0.02445071 314.42268025 -0.01890114 360.1671536 -0.00813792 C400.81769777 0.001354 441.4682294 0.00050364 482.11877346 -0.00905991 C527.78065525 -0.0197665 573.4425301 -0.02401738 619.10441297 -0.01783538 C623.97097488 -0.01719393 628.83753679 -0.01656825 633.7040987 -0.01594925 C635.50153203 -0.01571202 635.50153203 -0.01571202 637.33527714 -0.01546999 C655.43931519 -0.013194 673.54334823 -0.01585753 691.6473856 -0.02090836 C712.22944225 -0.02662186 732.81148462 -0.02520788 753.3935395 -0.01434687 C764.91590233 -0.00846735 776.43823424 -0.00810097 787.96059628 -0.01563922 C795.65345595 -0.02011754 803.34629079 -0.01734451 811.03914677 -0.00862968 C815.42457767 -0.00386425 819.80994705 -0.00226182 824.19537605 -0.00944164 C828.18622061 -0.01590892 832.17694918 -0.01314777 836.16778531 -0.00308032 C837.60120348 -0.00106886 839.03463128 -0.00239069 840.46804177 -0.0074922 C859.14470305 -0.06923657 874.85230295 4.39904416 888.74352932 17.37668228 C912.54255325 42.29712619 904.11852932 79.9003983 904.11852932 111.25168228 C583.68852932 111.25168228 263.25852932 111.25168228 -66.88147068 111.25168228 C-66.88147068 34.01295106 -66.88147068 34.01295106 -50.29162693 16.53683853 C-35.85887166 2.85262162 -19.21689053 -0.06851483 0 0 Z " fill="#394086" transform="translate(252.88147068023682,1243.7483177185059)"/>
<path d="M0 0 C40.26 0 80.52 0 122 0 C122 213.84 122 427.68 122 648 C81.74 648 41.48 648 0 648 C0 434.16 0 220.32 0 0 Z " fill="#394086" transform="translate(0,233)"/>
<path d="M0 0 C138.27 0 276.54 0 419 0 C419 27.06 419 54.12 419 82 C280.73 82 142.46 82 0 82 C0 54.94 0 27.88 0 0 Z " fill="#394086" transform="translate(462,1126)"/>
<path d="M0 0 C0.33 0 0.66 0 1 0 C1 115.17 1 230.34 1 349 C-44.21 349 -89.42 349 -136 349 C-136.165 326.869375 -136.33 304.73875 -136.5 281.9375 C-136.57283203 274.95327881 -136.64566406 267.96905762 -136.72070312 260.77319336 C-136.75683594 252.23547363 -136.75683594 252.23547363 -136.7635498 248.23683167 C-136.77099525 245.44745338 -136.80093527 242.65929659 -136.84460449 239.87025452 C-136.89963524 236.30818987 -136.91590372 232.74789142 -136.90457821 229.18544114 C-136.90805831 227.26708069 -136.95089342 225.34891403 -136.99542999 223.43106747 C-136.91600403 215.19169235 -136.91600403 215.19169235 -134.24361992 211.71500492 C-132.24322707 209.95307067 -130.21824957 208.47157255 -128 207 C-126.5030835 205.55332063 -125.02235495 204.08937101 -123.5703125 202.59765625 C-122.838125 201.85322266 -122.1059375 201.10878906 -121.3515625 200.34179688 C-119.842074 198.79655733 -118.33431467 197.24962707 -116.828125 195.70117188 C-115.74144531 194.59805664 -115.74144531 194.59805664 -114.6328125 193.47265625 C-113.98199707 192.80500244 -113.33118164 192.13734863 -112.66064453 191.44946289 C-111 190 -111 190 -109 190 C-108.75636719 189.15953125 -108.51273438 188.3190625 -108.26171875 187.453125 C-106.85120025 183.59275859 -104.94014535 180.24185902 -102.8125 176.75 C-101.90501595 175.23381085 -100.99885194 173.71683112 -100.09375 172.19921875 C-99.59875 171.37083496 -99.10375 170.54245117 -98.59375 169.68896484 C-95.6209771 164.67332135 -92.72060528 159.61581773 -89.8125 154.5625 C-89.17546143 153.45680664 -88.53842285 152.35111328 -87.88208008 151.21191406 C-86.57299343 148.93975918 -85.26415738 146.66745991 -83.95556641 144.39501953 C-80.80667946 138.9283002 -77.65316736 133.46425113 -74.5 128 C-73.2499765 125.83334689 -71.99997653 123.66668021 -70.75 121.5 C-58.25 99.83333333 -45.75 78.16666667 -33.25 56.5 C-32.63060547 55.4262915 -32.01121094 54.35258301 -31.37304688 53.24633789 C-30.129877 51.09169376 -28.88639025 48.93723243 -27.64257812 46.78295898 C-24.75016853 41.77245879 -21.86064773 36.76037365 -18.98303223 31.74136353 C-17.97451686 29.98271251 -16.9649523 28.22466791 -15.95507812 26.46679688 C-14.69649482 24.27527769 -13.43983013 22.08265496 -12.18554688 19.88867188 C-4.27820342 6.13254476 -4.27820342 6.13254476 0 0 Z " fill="#394087" transform="translate(1343,532)"/>
<path d="M0 0 C9.19967703 4.36054056 17.88740758 9.38922717 26.625 14.59423828 C30.91919984 17.13597375 35.24163304 19.62895929 39.5625 22.125 C40.82235718 22.8533606 40.82235718 22.8533606 42.10766602 23.59643555 C44.07146879 24.7314926 46.03556654 25.86603493 48 27 C44.15618294 34.90535539 40.04462732 42.56508071 35.5625 50.125 C34.32231764 52.23402286 33.08275562 54.34341061 31.84375 56.453125 C30.89242187 58.07057617 30.89242187 58.07057617 29.921875 59.72070312 C26.77515892 65.08994733 23.66841381 70.48208191 20.5625 75.875 C19.62966187 77.49365967 19.62966187 77.49365967 18.67797852 79.14501953 C17.41550269 81.33582951 16.15321444 83.5267476 14.89111328 85.71777344 C11.13971976 92.22871257 7.38309006 98.73663194 3.62744141 105.24511719 C0.48817754 110.68585336 -2.64981497 116.12731477 -5.78515625 121.5703125 C-12.40222892 133.0544882 -19.04633977 144.52196894 -25.73291016 155.96582031 C-31.90084228 166.52903161 -38.00789922 177.12711576 -44.11328125 187.7265625 C-45.9796838 190.9647516 -47.84873763 194.20139438 -49.71875 197.4375 C-56.17333664 208.60938934 -62.60473341 219.79406618 -69 231 C-76.0037638 243.2721567 -83.0539917 255.51707716 -90.12353516 267.75146484 C-92.69319937 272.20006645 -95.25949445 276.65060813 -97.82592773 281.10107422 C-103.1438133 290.32252126 -108.46711736 299.54076775 -113.80444336 308.75097656 C-116.3814325 313.199435 -118.95279664 317.65108456 -121.51953125 322.10546875 C-127.63126458 332.71166204 -133.75601949 343.30927821 -139.9375 353.875 C-145.01280154 362.5525927 -150.02258794 371.26605616 -155 380 C-160.5400173 389.72115617 -166.13374809 399.40894658 -171.78344727 409.06689453 C-176.02617273 416.32211726 -180.23998054 423.59353319 -184.4375 430.875 C-185.05657227 431.94886963 -185.67564453 433.02273926 -186.31347656 434.12915039 C-188.86322796 438.55350496 -191.41182081 442.97852587 -193.95996094 447.40380859 C-194.6099707 448.53254395 -195.25998047 449.6612793 -195.9296875 450.82421875 C-196.89696777 452.50402832 -196.89696777 452.50402832 -197.88378906 454.21777344 C-199.76471881 457.47963895 -201.65162914 460.73798843 -203.5390625 463.99609375 C-205.73148608 467.78426867 -207.89356746 471.58649176 -210.0234375 475.41015625 C-210.47871826 476.21573975 -210.93399902 477.02132324 -211.40307617 477.85131836 C-212.23308724 479.32060045 -213.05181213 480.79634153 -213.85668945 482.27954102 C-214.94921875 484.1953125 -214.94921875 484.1953125 -217 487 C-221.71503011 487 -222.45123708 485.828303 -225.78271484 482.8046875 C-230.36557122 479.07461986 -235.67432626 476.38530459 -240.8125 473.5 C-243.06946212 472.21954585 -245.32597893 470.93830646 -247.58203125 469.65625 C-248.66049316 469.04523438 -249.73895508 468.43421875 -250.85009766 467.8046875 C-255.27411235 465.27001717 -259.64433152 462.65004274 -264 460 C-263.41086447 456.02489967 -262.17954805 453.19302975 -260.1484375 449.73828125 C-259.55224609 448.71541016 -258.95605469 447.69253906 -258.34179688 446.63867188 C-257.69275391 445.54103516 -257.04371094 444.44339844 -256.375 443.3125 C-255.69521082 442.15083078 -255.01618752 440.98871307 -254.33789062 439.82617188 C-252.92841697 437.41182554 -251.51567013 434.99944078 -250.10058594 432.58837891 C-246.86944479 427.07681417 -243.68727005 421.5370062 -240.5 416 C-239.25023053 413.83320035 -238.00022976 411.6665341 -236.75 409.5 C-235.821875 407.89125 -235.821875 407.89125 -234.875 406.25 C-228 394.33333333 -221.125 382.41666667 -214.25 370.5 C-213.63116943 369.42733887 -213.01233887 368.35467773 -212.37475586 367.24951172 C-211.12564482 365.08442929 -209.87645871 362.91939018 -208.62719727 360.75439453 C-205.48797691 355.31384294 -202.35009437 349.87252784 -199.21484375 344.4296875 C-192.59777108 332.9455118 -185.95366023 321.47803106 -179.26708984 310.03417969 C-173.10080946 299.47379718 -166.9950405 288.87873234 -160.89111328 278.28222656 C-157.13971976 271.77128743 -153.38309006 265.26336806 -149.62744141 258.75488281 C-146.48817754 253.31414664 -143.35018503 247.87268523 -140.21484375 242.4296875 C-133.59777108 230.9455118 -126.95366023 219.47803106 -120.26708984 208.03417969 C-114.10080946 197.47379718 -107.9950405 186.87873234 -101.89111328 176.28222656 C-98.76319852 170.85340058 -95.63141552 165.42680719 -92.5 160 C-91.24998121 157.83334417 -89.99998122 155.6666775 -88.75 153.5 C-71.25 123.16666667 -53.75 92.83333333 -36.25 62.5 C-35.63084717 61.4267749 -35.01169434 60.3535498 -34.3737793 59.24780273 C-33.1279423 57.08840605 -31.88201182 54.92906331 -30.63598633 52.76977539 C-27.44651047 47.24232403 -24.25883115 41.71384879 -21.07421875 36.18359375 C-14.10677118 24.08813954 -7.11025277 12.01214469 0 0 Z " fill="#1CA0D6" transform="translate(1439,183)"/>
<path d="M0 0 C6.26741875 2.36165682 11.9769832 5.74481309 17.8125 9 C18.71399277 9.50105759 18.71399277 9.50105759 19.63369751 10.01223755 C29.28015574 15.37925224 38.74650652 20.97743533 48 27 C44.15618294 34.90535539 40.04462732 42.56508071 35.5625 50.125 C34.32231764 52.23402286 33.08275562 54.34341061 31.84375 56.453125 C30.89242187 58.07057617 30.89242187 58.07057617 29.921875 59.72070312 C26.77515892 65.08994733 23.66841381 70.48208191 20.5625 75.875 C19.62966187 77.49365967 19.62966187 77.49365967 18.67797852 79.14501953 C17.41550269 81.33582951 16.15321444 83.5267476 14.89111328 85.71777344 C11.13971976 92.22871257 7.38309006 98.73663194 3.62744141 105.24511719 C0.48817754 110.68585336 -2.64981497 116.12731477 -5.78515625 121.5703125 C-11.80747329 132.02206199 -17.84669337 142.46299548 -23.9375 152.875 C-29.01275123 161.55262241 -34.02258767 170.26605568 -39 179 C-44.5400173 188.72115617 -50.13374809 198.40894658 -55.78344727 208.06689453 C-61.93932133 218.59367451 -68.02663887 229.15964934 -74.11328125 239.7265625 C-75.9796838 242.9647516 -77.84873763 246.20139438 -79.71875 249.4375 C-86.17333664 260.60938934 -92.60473341 271.79406618 -99 283 C-106.00799859 295.27957699 -113.06274626 307.53174196 -120.13671875 319.7734375 C-122.0203505 323.03524007 -123.90122321 326.29861844 -125.78125 329.5625 C-131.88820602 340.16264458 -138.01343346 350.75128262 -144.1875 361.3125 C-148.96947226 369.49383369 -153.70340142 377.7005729 -158.39575195 385.93359375 C-167.71380201 402.27814378 -177.14420708 418.55737572 -186.64648438 434.79541016 C-189.84411595 440.27049804 -193.01401872 445.76030469 -196.15234375 451.26953125 C-196.50443405 451.88739502 -196.85652435 452.50525879 -197.21928406 453.1418457 C-198.92314311 456.13340208 -200.62371289 459.12673564 -202.32006836 462.12255859 C-205.59330349 467.88125477 -208.91723492 473.60553992 -212.3515625 479.26953125 C-213.32730225 480.88178589 -213.32730225 480.88178589 -214.32275391 482.52661133 C-216 485 -216 485 -218 486 C-220.08447266 485.06298828 -220.08447266 485.06298828 -222.6640625 483.5703125 C-223.614021 483.02616699 -224.56397949 482.48202148 -225.54272461 481.92138672 C-226.55987549 481.3285791 -227.57702637 480.73577148 -228.625 480.125 C-229.66084229 479.53090332 -230.69668457 478.93680664 -231.76391602 478.32470703 C-234.84656908 476.55657798 -237.92382118 474.77936333 -241 473 C-243.97470237 471.2837148 -246.95411579 469.57613576 -249.9375 467.875 C-250.84653076 467.34543701 -250.84653076 467.34543701 -251.77392578 466.80517578 C-256.06095293 464.35902746 -260.36221024 462.63926268 -265 461 C-263.7423893 456.89102713 -262.22023808 453.34593014 -260.05078125 449.640625 C-259.45749023 448.6204126 -258.86419922 447.6002002 -258.25292969 446.54907227 C-257.61258789 445.46037842 -256.97224609 444.37168457 -256.3125 443.25 C-255.64036672 442.09791526 -254.96882775 440.94548362 -254.29785156 439.79272461 C-252.90152851 437.39482094 -251.50265563 434.99843233 -250.10205078 432.60302734 C-246.79264708 426.9375312 -243.52403853 421.24847691 -240.25 415.5625 C-235.57242935 407.45191054 -230.88686164 399.3460067 -226.19335938 391.24462891 C-220.42879258 381.29167812 -214.6855417 371.32641853 -208.93945312 361.36279297 C-205.16986237 354.82674777 -201.3991935 348.29132438 -197.62817383 341.75610352 C-194.48863754 336.31497674 -191.35042186 330.87309637 -188.21484375 325.4296875 C-181.59858883 313.94693103 -174.95609989 302.48039099 -168.26928711 291.03857422 C-163.98755083 283.70687521 -159.73779993 276.35717019 -155.5 269 C-150.69148156 260.65201541 -145.86094317 252.31756816 -141 244 C-134.25286886 232.45277514 -127.5666063 220.87097881 -120.89111328 209.28222656 C-117.76319852 203.85340058 -114.63141552 198.42680719 -111.5 193 C-110.24998121 190.83334417 -108.99998122 188.6666775 -107.75 186.5 C-100.25 173.5 -92.75 160.5 -85.25 147.5 C-84.63116943 146.42733887 -84.01233887 145.35467773 -83.37475586 144.24951172 C-82.12564482 142.08442929 -80.87645871 139.91939018 -79.62719727 137.75439453 C-76.48797691 132.31384294 -73.35009437 126.87252784 -70.21484375 121.4296875 C-63.59777108 109.9455118 -56.95366023 98.47803106 -50.26708984 87.03417969 C-44.10080946 76.47379718 -37.9950405 65.87873234 -31.89111328 55.28222656 C-28.76319852 49.85340058 -25.63141635 44.42680671 -22.5 39 C-21.26951242 36.86719836 -20.03904375 34.73438582 -18.80859375 32.6015625 C-12.5390625 21.734375 -6.26953125 10.8671875 0 0 Z " fill="#1CA0D6" transform="translate(1360,138)"/>
<path d="M0 0 C1.46252197 0.00737183 1.46252197 0.00737183 2.95458984 0.01489258 C10.08897175 0.13088428 16.51133005 0.84132354 23.25 3.3125 C24.23871094 3.66441406 25.22742187 4.01632813 26.24609375 4.37890625 C43.97772662 11.22309066 57.56145001 23.46225407 66.25 40.3125 C74.51054839 59.01486629 75.91541223 78.94429732 69.25 98.3125 C64.64388721 110.11003401 57.47205325 120.98043074 51.05859375 131.84375 C46.44297426 139.66236239 41.92261777 147.53502166 37.40014648 155.40771484 C35.6897442 158.37968877 33.97206965 161.34727351 32.25 164.3125 C31.68925781 165.28348633 31.12851563 166.25447266 30.55078125 167.25488281 C30.01839844 168.16334961 29.48601562 169.07181641 28.9375 170.0078125 C28.46699219 170.81492676 27.99648437 171.62204102 27.51171875 172.45361328 C26.25 174.3125 26.25 174.3125 24.25 175.3125 C22.29248047 174.45483398 22.29248047 174.45483398 19.8671875 173.05859375 C18.96009033 172.54127686 18.05299316 172.02395996 17.1184082 171.4909668 C16.1305835 170.91644775 15.14275879 170.34192871 14.125 169.75 C12.58042114 168.86405151 12.58042114 168.86405151 11.00463867 167.96020508 C7.74723085 166.08757228 4.49746102 164.20232354 1.25 162.3125 C0.26499512 161.73951172 -0.72000977 161.16652344 -1.73486328 160.57617188 C-5.63137037 158.30677041 -9.52578581 156.03385034 -13.41699219 153.75537109 C-21.12471303 149.24537639 -28.86728603 144.79823807 -36.625 140.375 C-58.07161094 128.14374985 -79.43767805 115.77616905 -100.75 103.3125 C-99.37551133 99.67617377 -97.74565142 96.34185879 -95.84375 92.953125 C-95.27011719 91.92888428 -94.69648437 90.90464355 -94.10546875 89.84936523 C-93.49316406 88.76469971 -92.88085938 87.68003418 -92.25 86.5625 C-91.61707031 85.437229 -90.98414063 84.31195801 -90.33203125 83.15258789 C-86.09581453 75.64200336 -81.7919163 68.17737161 -77.37890625 60.76953125 C-75.32399734 57.31095654 -73.32663321 53.82235012 -71.33984375 50.32421875 C-59.09221036 28.84223243 -59.09221036 28.84223243 -51.75 21.3125 C-50.84314453 20.36503906 -50.84314453 20.36503906 -49.91796875 19.3984375 C-41.42598815 11.28189183 -29.93760661 5.58771237 -18.75 2.3125 C-17.54601563 1.95542969 -16.34203125 1.59835937 -15.1015625 1.23046875 C-10.08483627 0.0060155 -5.14256113 -0.03057356 0 0 Z " fill="#394086" transform="translate(1479.75,3.6875)"/>
<path d="M0 0 C4.03842436 1.69680424 7.73863555 3.88971844 11.5 6.125 C12.59658936 6.75809082 13.69317871 7.39118164 14.82299805 8.04345703 C18.22519506 10.01257271 21.61314236 12.00464201 25 14 C26.99531733 15.16279167 28.99138013 16.32430534 30.98828125 17.484375 C34.91988735 19.77100449 38.84598525 22.06675993 42.76953125 24.3671875 C48.89461852 27.94969342 55.05321915 31.47207468 61.21859741 34.98452759 C64.7401961 36.99198302 68.2583405 39.00549043 71.77702332 41.01805115 C74.68554017 42.68071206 77.5962955 44.33922137 80.51171875 45.98974609 C83.84643503 47.87988966 87.17378404 49.78244844 90.5 51.6875 C91.50289062 52.25146484 92.50578125 52.81542969 93.5390625 53.39648438 C102.3352002 58.46222663 102.3352002 58.46222663 105 63 C105.45542297 67.32651819 105.3410889 70.32656938 103 74 C100.95410156 75.60546875 100.95410156 75.60546875 98.390625 77.1875 C97.42302246 77.79384277 96.45541992 78.40018555 95.45849609 79.02490234 C94.39969238 79.67668457 93.34088867 80.3284668 92.25 81 C89.97482833 82.42702878 87.70121177 83.85626092 85.4296875 85.2890625 C84.83278107 85.66455231 84.23587463 86.04004211 83.62088013 86.4269104 C76.4545684 90.94893953 69.41507799 95.6598183 62.375 100.375 C61.15658698 101.19012129 59.93816274 102.00522582 58.71972656 102.8203125 C56.34477262 104.40978268 53.97043635 106.0001711 51.59643555 107.59106445 C39.95568765 115.39012066 28.27892695 123.12949386 16.53808594 130.77734375 C15.97834076 131.14197723 15.41859558 131.50661072 14.84188843 131.8822937 C13.21019758 132.94514912 11.57848771 134.00797534 9.94677734 135.07080078 C7.42951818 136.7188026 4.92413256 138.38215137 2.42578125 140.05859375 C1.78713135 140.48261475 1.14848145 140.90663574 0.49047852 141.34350586 C-1.09912131 142.39974578 -2.68270086 143.46503167 -4.265625 144.53125 C-7.29354099 146.15767345 -9.57318917 146.80006395 -13 147 C-16.3026001 145.87847914 -19.40138687 144.19722625 -21 141 C-21.11565249 138.50736345 -21.16179549 136.05299253 -21.15161133 133.55981445 C-21.1494074 132.76977429 -21.14720346 131.97973413 -21.14493275 131.16575336 C-21.04215669 119.44249833 -20.26887305 107.74274296 -19.57421875 96.04296875 C-19.42438842 93.47992893 -19.27463495 90.91688462 -19.12495422 88.35383606 C-18.81196248 83.02104679 -18.49435905 77.6885552 -18.17407227 72.35620117 C-17.8046976 66.20358187 -17.4495851 60.05024472 -17.10066098 53.89643496 C-16.76210939 47.9391176 -16.40875155 41.98273699 -16.04990578 36.02660561 C-15.8999958 33.50506592 -15.75451456 30.98325886 -15.61356163 28.46120262 C-15.41610488 24.95004718 -15.20176267 21.44031305 -14.9831543 17.93041992 C-14.92848495 16.89198944 -14.87381561 15.85355896 -14.81748962 14.78366089 C-14.22955017 5.85676146 -14.22955017 5.85676146 -11 2 C-7.19963801 -0.53357466 -4.3878739 -0.82048215 0 0 Z " fill="#394087" transform="translate(1090,635)"/>
<path d="M0 0 C18.48 0 36.96 0 56 0 C54.57181199 4.28456404 53.48701477 7.1910008 51.26953125 10.921875 C50.72176025 11.85112793 50.17398926 12.78038086 49.60961914 13.73779297 C48.72004517 15.22883545 48.72004517 15.22883545 47.8125 16.75 C46.53580222 18.91367549 45.25978329 21.07775166 43.984375 23.2421875 C43.32501953 24.35819336 42.66566406 25.47419922 41.98632812 26.62402344 C38.81074665 32.02126295 35.68620541 37.4476236 32.5625 42.875 C31.31254181 45.04429492 30.06254151 47.21356559 28.8125 49.3828125 C28.18859375 50.46594727 27.5646875 51.54908203 26.921875 52.66503906 C24.94955498 56.08753544 22.97518863 59.50884627 21 62.9296875 C14.64329846 73.93984459 8.28816348 84.95051146 2 96 C1.34 96 0.68 96 0 96 C0 64.32 0 32.64 0 0 Z " fill="#394086" transform="translate(1207,233)"/>
</svg>
